<?xml version="1.0" standalone="no"?>
<!DOCTYPE svg PUBLIC "-//W3C//DTD SVG 1.1//EN" "http://www.w3.org/Graphics/SVG/1.1/DTD/svg11.dtd" >
<!--
2013-9-30: Created.
-->
<svg>
<metadata>
Created by iconfont
</metadata>
<defs>

<font id="iconfont" horiz-adv-x="1024" >
  <font-face
    font-family="iconfont"
    font-weight="500"
    font-stretch="normal"
    units-per-em="1024"
    ascent="896"
    descent="-128"
  />
    <missing-glyph />
    
    <glyph glyph-name="baojing" unicode="&#58999;" d="M831.937316 70.581783H191.059745a40.117532 40.117532 0 0 0-40.117531 40.117531V362.436827a361.057786 361.057786 0 1 0 721.112634 0v-251.737513a40.117532 40.117532 0 0 0-40.117532-40.117531z m-600.760039 80.235063h560.642508V362.436827c0 154.452498-125.367287 280.822723-280.822723 280.822722S231.177277 517.892262 231.177277 362.436827zM872.054848-128H151.945152a94.2762 94.2762 0 0 0 0 188.5524h720.109696a94.2762 94.2762 0 0 0 0-188.5524zM151.945152-19.682664a14.041136 14.041136 0 0 1 0-28.082272h720.109696a14.041136 14.041136 0 0 1 0 28.082272zM512 737.535749a40.117532 40.117532 0 0 0-40.117532 40.117532V855.882468a40.117532 40.117532 0 0 0 80.235064 0v-78.229187a40.117532 40.117532 0 0 0-40.117532-40.117532zM701.555338 700.427032a40.117532 40.117532 0 0 0-35.10284 59.17336l37.108716 69.202742a40.38331 40.38331 0 1 0 71.208619-38.111655l-37.108716-69.202742a40.117532 40.117532 0 0 0-36.105779-21.061705zM841.966699 582.080313a40.117532 40.117532 0 0 0-29.08521 67.196866l53.155729 57.167483a40.117532 40.117532 0 0 0 59.17336-54.158668l-53.15573-57.167483a40.117532 40.117532 0 0 0-30.088149-13.038198zM323.4476 700.427032a40.117532 40.117532 0 0 0-35.10284 21.061705l-37.108717 69.202742a40.38331 40.38331 0 0 0 71.208619 38.111655l37.108717-69.202742a40.117532 40.117532 0 0 0-35.10284-59.17336zM182.033301 582.080313a40.117532 40.117532 0 0 0-29.085211 13.038198l-53.15573 57.167483a40.117532 40.117532 0 0 0 59.17336 54.158668l53.15573-57.167483a40.117532 40.117532 0 0 0-29.085211-67.196866zM438.785504 169.872674a40.117532 40.117532 0 0 0-28.082272 68.199804l134.393732 135.39667H381.618022a40.117532 40.117532 0 0 0-28.082273 68.199804l153.44956 153.449559a40.423428 40.423428 0 0 0 57.167482-57.167483l-85.249755-85.249755h162.476004a40.117532 40.117532 0 0 0 28.082272-68.199804L466.867777 181.907933a40.117532 40.117532 0 0 0-28.082273-12.035259z"  horiz-adv-x="1024" />

    
    <glyph glyph-name="wushuju" unicode="&#59216;" d="M177.664 196.096h-20.992v20.992c0 5.632-4.608 10.24-10.24 10.24s-10.24-4.608-10.24-10.24v-20.992h-20.992c-5.632 0-10.24-4.608-10.24-10.24s4.608-10.24 10.24-10.24h20.992v-20.992c0-5.632 4.608-10.24 10.24-10.24s10.24 4.608 10.24 10.24v20.992h20.992c5.632 0 10.24 4.608 10.24 10.24s-4.608 10.24-10.24 10.24zM1253.376 81.408h-115.712c7.168 12.288 11.264 26.624 11.264 41.472V729.088c0 46.08-37.376 83.456-83.456 83.456h-501.248c-46.08 0-83.456-37.376-83.456-83.456v-20.992H417.792c-46.08 0-83.456-37.376-83.456-83.456v-606.208c0-14.848 3.584-29.184 11.264-41.472H250.368c-11.264 0-20.992-9.216-20.992-20.992 0-11.264 9.216-20.992 20.992-20.992h752.128c11.264 0 20.992 9.216 20.992 20.992s-9.216 20.992-20.992 20.992h-11.264c7.168 12.288 11.264 26.624 11.264 41.472v20.992h250.88c11.776 0 20.992 9.216 20.992 20.992s-9.728 20.992-20.992 20.992z m-292.352-62.464c0-23.04-18.432-41.984-41.472-41.984h-501.76c-23.04 0-41.472 18.944-41.472 41.984V625.664c0 22.528 17.92 40.448 40.448 40.448h504.32c22.016 0 40.448-17.92 40.448-40.448v-606.72z m145.92 103.936c0-23.04-18.432-41.472-41.472-41.984h-62.976V624.64c0 46.08-37.376 83.456-83.456 83.456H522.24v20.992c0 23.04 18.432 41.472 41.472 41.984h501.76c23.04 0 41.472-18.432 41.472-41.984V122.88zM235.008 786.432c0-8.704 7.168-15.872 15.872-15.872 8.704 0 15.872 7.168 15.872 15.872v31.232h31.232c8.704 0 15.872 7.168 15.872 15.872 0 8.704-7.168 15.872-15.872 15.872H266.24v30.72C266.24 888.832 259.072 896 250.88 896c-8.704 0-15.872-7.168-15.872-15.872v-31.232h-31.232c-8.704 0-15.872-7.168-15.872-15.872 0-8.704 7.168-15.872 15.872-15.36h31.232v-31.232zM125.44 561.664C125.44 596.48 97.28 624.64 62.464 624.64 28.16 624.64 0 596.48 0 561.664 0 527.36 28.16 499.2 62.464 499.2c34.816 0 62.976 28.16 62.976 62.464z m-94.208 0c0 17.408 13.824 31.232 31.232 31.232s31.232-13.824 31.232-31.232-13.824-31.232-31.232-31.232-31.232 13.824-31.232 31.232zM167.424-23.04H41.472c-11.264 0-20.992-9.216-20.992-20.992 0-11.264 9.216-20.992 20.992-20.992h125.44c11.264 0 20.992 9.216 20.992 20.992s-9.216 20.992-20.48 20.992zM1556.48 279.552h-20.992v20.992c0 5.632-4.608 10.24-10.24 10.24s-10.24-4.608-10.24-10.24v-20.992h-20.992c-5.632 0-10.24-4.608-10.24-10.24s4.608-10.24 10.24-10.24h20.992v-20.992c0-5.632 4.608-10.24 10.24-10.24s10.24 4.608 10.24 10.24v20.992h20.992c5.632 0 10.24 4.608 10.24 10.24s-4.608 10.24-10.24 10.24zM1357.824 749.568c-34.816 0-62.464-28.16-62.464-62.464 0-34.816 28.16-62.464 62.464-62.464 34.816 0 62.464 28.16 62.464 62.464 0 34.816-28.16 62.464-62.464 62.464z m0-93.696c-17.408 0-31.232 13.824-31.232 31.232 0 17.408 13.824 31.232 31.232 31.232s31.232-13.824 31.232-31.232c0-17.408-13.824-31.232-31.232-31.232zM480.256 457.216h334.336c11.264 0 20.992 9.216 20.992 20.992s-9.216 20.992-20.992 20.992H480.256c-11.264 0-20.992-9.216-20.992-20.992 0.512-11.776 9.728-20.992 20.992-20.992zM480.256 561.664h229.888c11.776 0 20.992 9.216 20.992 20.992s-9.216 20.992-20.992 20.992H480.256c-11.776 0-20.992-9.216-20.992-20.992 0.512-11.776 9.728-20.992 20.992-20.992zM617.984 50.176c-95.232 0-172.544 77.312-172.544 172.544s77.312 172.544 172.544 172.544 172.544-77.312 172.544-172.544-77.824-172.544-172.544-172.544z m0 303.616c-72.704 0-131.584-58.88-131.584-131.584s58.88-131.584 131.584-131.584 131.584 58.88 131.584 131.584-59.392 131.584-131.584 131.584zM890.88-59.904l-96.768 121.856c-8.704 10.752-21.504 15.872-34.304 14.336l-25.6 32.768c-7.168 8.704-19.968 10.24-28.672 3.072-8.704-7.168-10.24-19.968-3.072-28.672l25.6-32.768c-4.096-11.776-2.56-25.6 6.144-36.352l96.768-121.856c7.68-9.728 18.944-14.336 30.208-14.336 8.192 0 16.896 2.56 24.064 8.192 15.872 12.8 18.944 36.864 5.632 53.76zM602.112 204.288c0 3.072 0.512 6.144 1.024 9.216 0.512 2.56 1.536 5.12 3.072 7.68s3.072 5.12 5.632 7.68c2.56 2.56 5.12 5.12 8.704 8.192 2.56 2.048 4.608 4.096 6.144 5.632 1.536 1.536 3.072 3.584 4.096 5.12 1.024 1.536 1.536 3.584 2.048 5.12 0.512 2.048 0.512 4.096 0.512 6.656 0 3.584-0.512 6.656-1.024 8.704-1.024 2.048-2.048 4.096-4.096 5.12-2.048 1.024-4.608 2.048-7.68 2.56-3.072 0.512-7.168 0.512-11.776 0.512-4.608 0-9.728-0.512-14.848-1.024s-9.216-2.048-13.312-2.56c-3.072-0.512-12.288 2.048-12.288 13.312 0 10.752 12.288 14.848 12.288 14.848 4.096 1.024 9.728 2.048 15.36 3.072 6.144 1.024 12.8 1.024 19.456 1.024 9.216 0 17.408-0.512 24.576-2.048 6.656-1.024 12.288-3.584 16.896-6.656 4.608-3.072 7.68-7.168 9.728-12.8 2.048-5.12 3.072-12.288 3.072-19.968 0-5.632-0.512-10.24-1.024-13.824-0.512-4.096-2.048-7.168-3.584-10.752s-3.584-6.144-6.656-8.704c-2.56-2.56-6.144-5.632-9.728-8.704-3.584-2.56-6.656-5.12-8.704-7.168-2.048-2.048-4.096-4.096-5.12-5.632-1.024-1.536-2.048-3.072-2.56-5.12-0.512-1.536-0.512-3.584-0.512-5.632v-5.12h-28.16v11.264z m14.336-64.512c-4.096 0-7.68 0-10.24 0.512s-4.608 1.536-6.144 2.56c-1.536 1.536-2.56 3.584-3.072 6.144s-0.512 6.144-0.512 10.24 0 7.168 0.512 9.728 1.536 4.608 3.072 6.144c1.536 1.536 3.584 2.56 6.144 2.56 2.56 0.512 6.144 0.512 10.24 0.512s7.68 0 10.24-0.512 4.608-1.536 6.144-2.56c1.536-1.536 2.56-3.584 3.072-6.144 0.512-2.56 1.024-5.632 1.024-9.728 0-4.096-0.512-7.68-1.024-10.24s-1.536-4.608-3.072-6.144c-1.536-1.536-3.584-2.56-6.144-2.56-2.56-0.512-6.144-0.512-10.24-0.512z"  horiz-adv-x="1567" />

    
    <glyph glyph-name="xiangqing" unicode="&#58925;" d="M739.555556 384m-56.888889 0a56.888889 56.888889 0 1 1 113.777777 0 56.888889 56.888889 0 1 1-113.777777 0ZM512 384m-56.888889 0a56.888889 56.888889 0 1 1 113.777778 0 56.888889 56.888889 0 1 1-113.777778 0ZM284.444444 384m-56.888888 0a56.888889 56.888889 0 1 1 113.777777 0 56.888889 56.888889 0 1 1-113.777777 0Z"  horiz-adv-x="1024" />

    
    <glyph glyph-name="guanbi" unicode="&#59083;" d="M974.189714-119.954286a38.692571 38.692571 0 0 0-27.355428 11.337143L14.994286 823.222857A38.692571 38.692571 0 0 0 69.558857 877.933714l931.986286-931.913143a38.765714 38.765714 0 0 0-27.428572-65.974857m-931.84 0a38.619429 38.619429 0 0 0-27.428571 66.048L946.907429 877.933714a38.765714 38.765714 0 0 0 54.637714-54.710857L69.705143-108.617143c-7.314286-7.314286-17.115429-11.337143-27.428572-11.337143"  horiz-adv-x="1024" />

    
    <glyph glyph-name="xiaoxi" unicode="&#59022;" d="M516.01408 3.84H431.52384L199.21408-122.88v232.30976C83.41504 190.72512 9.13408 307.38944 9.13408 447.38048c0 244.9408 226.93376 443.49952 506.88 443.49952 279.91552 0 506.85952-198.55872 506.85952-443.49952 0.01536-244.98176-226.91328-443.54048-506.85952-443.54048z m0 823.70048c-244.94592 0-443.56608-170.2144-443.56608-380.16 0-128.82944 75.75552-248.0384 190.12608-316.8v-140.8l168.92928 77.41952h84.46464c244.93056 0 443.56096 170.20928 443.56096 380.18048 0.02048 209.9712-198.5792 380.16-443.51488 380.16z m253.45536-443.52c-35.03104 0-63.38048 28.34944-63.38048 63.36 0 35.03616 28.34944 63.3856 63.38048 63.3856 34.9696 0 63.33952-28.34944 63.33952-63.3856 0-35.01056-28.36992-63.36-63.33952-63.36z m-253.45536 0c-35.03616 0-63.39584 28.34944-63.39584 63.36 0 35.03616 28.35968 63.3856 63.39584 63.3856 35.00544 0 63.36-28.34944 63.36-63.3856-0.00512-35.01056-28.35456-63.36-63.36-63.36z m-253.45536 0c-34.97984 0-63.34976 28.34944-63.34976 63.36 0 34.99008 28.36992 63.3856 63.34976 63.3856 35.01056 0 63.38048-28.37504 63.38048-63.3856 0.00512-35.03104-28.3904-63.36-63.38048-63.36z"  horiz-adv-x="1032" />

    
    <glyph glyph-name="zuoyou" unicode="&#58880;" d="M512-123.1c-68.4 0-134.9 13.4-197.4 39.9-60.4 25.5-114.6 62.1-161.2 108.7C106.8 72 70.3 126.2 44.7 186.6 18.3 249.1 4.9 315.6 4.9 384s13.4 134.9 39.9 197.4c25.5 60.4 62.1 114.6 108.7 161.2C200 789.2 254.2 825.7 314.6 851.3 377.1 877.7 443.6 891.1 512 891.1s134.9-13.4 197.4-39.9c60.4-25.5 114.6-62.1 161.2-108.7 46.6-46.6 83.1-100.8 108.7-161.2 26.5-62.5 39.9-129 39.9-197.4s-13.4-134.9-39.9-197.4c-25.5-60.4-62.1-114.6-108.7-161.2s-100.8-83.1-161.2-108.7c-62.5-26.3-129-39.7-197.4-39.7z m0 960.2C262.1 837.1 58.9 633.9 58.9 384c0-249.9 203.3-453.1 453.1-453.1 249.9 0 453.1 203.3 453.1 453.1 0 249.9-203.2 453.1-453.1 453.1zM396.5 95.5c-6.8 0-13.6 2.5-18.8 7.7-10.7 10.4-10.9 27.5-0.5 38.2l221.7 227.5c6.4 6.7 6.2 17.4-0.4 23.9l-0.6 0.6L374 626.8c-10.3 10.8-10 27.9 0.8 38.2s27.9 10 38.2-0.8L636.6 431c27.4-27.2 27.9-71.7 1.2-99.6l-0.1-0.1-221.9-227.6c-5.3-5.5-12.3-8.2-19.3-8.2z"  horiz-adv-x="1024" />

    
    <glyph glyph-name="xiaoxi1" unicode="&#58953;" d="M571.349333 65.621333c0-36.181333-29.909333-65.621333-66.773333-65.621333s-66.773333 29.44-66.773333 65.621333h133.546666zM504.576 768c22.058667 0 40.106667-17.706667 40.106667-39.381333v-30.293334c129.792-18.645333 229.632-126.677333 229.632-256.725333v-193.792l53.333333-71.168c14.08-22.741333 14.506667-50.005333 0.938667-72.96a75.093333 75.093333 0 0 0-65.621334-36.906667H246.186667c-27.477333 0-52.053333 13.781333-65.578667 36.778667-13.568 23.04-13.226667 50.346667 0.896 73.002667l1.493333 2.133333 51.84 69.034667V441.6c0 130.048 99.84 238.08 229.632 256.768v30.250667c0 21.674667 18.048 39.381333 40.106667 39.381333z m-0.085333-125.226667c-115.242667 0-209.024-90.24-209.024-201.173333v-194.986667c0-11.52-3.669333-22.613333-10.794667-32l-51.584-68.864a13.568 13.568 0 0 1 0.298667-13.397333c1.28-2.133333 5.077333-7.253333 12.714666-7.253333h516.864c7.722667 0 11.52 4.992 12.714667 7.253333a13.354667 13.354667 0 0 1 0.298667 13.397333l-51.669334 68.650667a52.906667 52.906667 0 0 0-10.794666 32.170667V441.6c0 110.933333-93.781333 201.173333-209.066667 201.173333z"  horiz-adv-x="1024" />

    
    <glyph glyph-name="zuo" unicode="&#58881;" d="M512 891.1c68.4 0 134.9-13.4 197.40000001-39.9 60.39999999-25.5 114.6-62.1 161.19999999-108.7C917.2 696 953.7 641.8 979.3 581.4 1005.7 518.9 1019.1 452.4 1019.1 384s-13.4-134.9-39.9-197.40000001c-25.5-60.39999999-62.1-114.6-108.7-161.19999999C824-21.200000000000045 769.8-57.700000000000045 709.4-83.29999999999995 646.9-109.70000000000005 580.4-123.10000000000002 512-123.10000000000002s-134.9 13.4-197.40000001 39.9c-60.39999999 25.5-114.6 62.1-161.19999999 108.7-46.6 46.6-83.1 100.8-108.7 161.2-26.50000001 62.5-39.9 129-39.9 197.4s13.4 134.9 39.9 197.4c25.5 60.39999999 62.1 114.6 108.7 161.2s100.8 83.1 161.2 108.7c62.5 26.3 129 39.7 197.4 39.7z m0-960.20000001C761.9-69.10000000000002 965.1 134.10000000000002 965.10000001 384c0 249.9-203.3 453.1-453.10000001 453.10000001-249.9 0-453.1-203.3-453.10000001-453.10000001 0-249.9 203.2-453.1 453.10000001-453.10000001zM627.5 672.5c6.8 0 13.6-2.5 18.8-7.7 10.69999999-10.4 10.9-27.5 0.5-38.2l-221.7-227.5c-6.4-6.69999999-6.2-17.4 0.4-23.9l0.6-0.6L650 141.20000000000005c10.3-10.8 10-27.9-0.8-38.2s-27.9-10-38.2 0.8L387.4 337c-27.4 27.2-27.9 71.70000001-1.2 99.6l0.1 0.1 221.9 227.6c5.3 5.5 12.29999999 8.2 19.3 8.2z"  horiz-adv-x="1024" />

    
    <glyph glyph-name="qia" unicode="&#58930;" d="M873.84 745.308c-99.8 99.8-230 150-361.3 150s-261.6-50.3-361.3-150c-200.3-199.4-200.3-523.2 0-722.6 99.8-99.6 230-150 361.3-150s261.6 50.3 361.3 150C1073.94 222.208 1073.94 545.908 873.84 745.308L873.84 745.308M855.04 41.608c-91.5-91.5-213.3-141.7-342.5-141.7s-251 50.2-342.5 141.7c-91.4 91.4-141.7 213.3-141.7 342.5 0 129.2 50.2 251 141.7 342.5 91.5 91.4 213.5 141.5 342.5 141.5 129.2 0 251-50.2 342.5-141.7C946.54 635.008 996.74 513.108 996.74 384.008 996.64 255.008 946.54 133.008 855.04 41.608L855.04 41.608M838.04 58.608 838.04 58.608zM458.14 122.108 458.14 122.108zM429.24 329.108 429.24 329.108zM601.64 254.908 601.64 254.908zM513.34 89.908 513.34 89.908zM748.04 473.408l-18.7 152.3c-2.6 21.4-22.2 36.7-43.6 34.1l-427-54.7c-21.4-2.6-36.7-22.2-34.1-43.6l35-283.8c0.7-5.4 2.4-10.4 5-14.9l0-114.2c0-21.6 17.6-39.1 39.1-39.1l430.2 0c21.6 0 39.1 17.6 39.1 39.1L773.04 437.008C773.24 453.608 762.74 467.808 748.04 473.408zM244.14 563.808c-1.3 10.7 6.3 20.4 17 21.8l427 54.7c10.7 1.3 20.4-6.3 21.8-17l4.9-40-465.8-59.5L244.14 563.808zM264.74 437.008l0-41.9-9.8 77.8 465.8 57 7.2-53.9-424.2 0C282.34 476.108 264.74 458.508 264.74 437.008zM753.64 148.508c0-10.8-8.7-19.5-19.6-19.5l-430.2 0c-10.8 0-19.6 8.7-19.6 19.5L284.24 437.008c0 10.8 8.7 19.5 19.6 19.5l430.2 0c10.8 0 19.6-8.7 19.6-19.5L753.64 148.508 753.64 148.508zM347.84 269.708l91.7 0c11.7 0 24.5 12.8 24.5 24.5L464.04 386.008c0 11.7-12.8 24.5-24.5 24.5l-91.7 0c-11.7 0-24.5-12.8-24.5-24.5l0-91.8C323.34 282.608 336.24 269.708 347.84 269.708zM447.44 294.308c0-4.3-3.5-7.8-7.8-7.8l-39.2 0 0 28 8.2 0c5.4 0 9.8 4.4 9.8 9.8l0 8.2 29.1 0L447.44 294.308 447.44 294.308zM379.24 324.508l0 29.1 29.1 0 0-29.1L379.24 324.508zM400.44 393.808l39.2 0c4.3 0 7.8-3.5 7.8-7.8l0-40.3-29.1 0 0 8.2c0 5.4-4.4 9.8-9.8 9.8l-8.2 0L400.44 393.808 400.44 393.808zM340.14 386.008c0 4.3 3.5 7.8 7.8 7.8l39.2 0 0-30.2-8.2 0c-5.4 0-9.8-4.4-9.8-9.8l0-8.2-29.1 0L340.14 386.008 340.14 386.008zM340.14 332.408l29.1 0 0-8.2c0-5.4 4.4-9.8 9.8-9.8l8.2 0 0-28-39.2 0c-4.3 0-7.8 3.5-7.8 7.8L340.14 332.408 340.14 332.408zM324.64 214.508l388.7 0 0-26.8L324.64 187.708 324.64 214.508z"  horiz-adv-x="1026" />

    
    <glyph glyph-name="zhiwen" unicode="&#59001;" d="M512 896C230.4 896 0 665.6 0 384s230.4-512 512-512 512 230.4 512 512-230.4 512-512 512zM300.8 710.4c32 19.2 70.4 32 102.4 44.8C435.2 761.6 473.6 768 512 768c38.4 0 70.4-6.4 108.8-12.8 32-6.4 70.4-25.6 102.4-44.8 6.4 0 6.4-6.4 12.8-12.8v-19.2c0-6.4-6.4-6.4-6.4-6.4-6.4 0-6.4-6.4-12.8-6.4h-6.4-6.4c-32 19.2-64 32-96 38.4-32 12.8-64 19.2-96 19.2s-70.4-6.4-102.4-12.8c-32-12.8-64-25.6-89.6-44.8h-19.2c-6.4 0-6.4 6.4-12.8 12.8 0 6.4-6.4 12.8 0 19.2 0 6.4 6.4 6.4 12.8 12.8zM448 12.8l-6.4-6.4h-6.4-6.4s-6.4 0-6.4 6.4c-12.8 19.2-25.6 32-38.4 44.8-12.8 12.8-19.2 32-32 57.6-19.2 25.6-25.6 51.2-32 76.8-6.4 25.6-6.4 57.6-6.4 89.6 0 57.6 25.6 108.8 57.6 147.2 38.4 38.4 89.6 64 140.8 64 57.6 0 108.8-25.6 140.8-64 38.4-38.4 57.6-89.6 57.6-147.2 0-6.4 0-12.8-6.4-19.2-6.4-6.4-6.4-6.4-12.8-6.4s-12.8 0-12.8 6.4c-6.4 6.4-6.4 12.8-6.4 19.2 0 44.8-19.2 83.2-44.8 115.2C595.2 428.8 556.8 448 512 448s-83.2-19.2-115.2-51.2c-25.6-25.6-44.8-70.4-44.8-115.2 0-25.6 0-51.2 6.4-76.8 6.4-25.6 12.8-44.8 25.6-64 12.8-19.2 19.2-38.4 32-51.2 6.4-12.8 19.2-25.6 32-38.4 6.4-6.4 6.4-12.8 6.4-19.2 0-6.4 0-12.8-6.4-19.2z m294.4 76.8c0-6.4-6.4-6.4-12.8-12.8-12.8 0-19.2 0-25.6-6.4h-12.8c-19.2 0-38.4 0-57.6 6.4-19.2 6.4-38.4 12.8-51.2 25.6-25.6 19.2-44.8 44.8-64 76.8-12.8 32-25.6 64-25.6 96 0 6.4 0 12.8 6.4 19.2 0 6.4 6.4 12.8 12.8 12.8s12.8 0 12.8-6.4c6.4-6.4 6.4-12.8 6.4-19.2 0-25.6 6.4-51.2 19.2-76.8 12.8-25.6 25.6-44.8 51.2-57.6l38.4-19.2c12.8-6.4 32-6.4 44.8-6.4h38.4c6.4 0 12.8 0 19.2-6.4 6.4-6.4 6.4-6.4 6.4-12.8 0 0-6.4-6.4-6.4-12.8z m25.6 108.8c-19.2-19.2-51.2-32-76.8-32-32 0-57.6 12.8-76.8 32-19.2 19.2-32 51.2-32 83.2 0 19.2-6.4 38.4-19.2 51.2-19.2 12.8-32 19.2-51.2 19.2-19.2 0-38.4-6.4-51.2-19.2-12.8-12.8-19.2-32-19.2-51.2 0-32 6.4-64 19.2-89.6 12.8-25.6 25.6-57.6 44.8-76.8 19.2-19.2 32-32 51.2-44.8 19.2-12.8 38.4-19.2 64-25.6 6.4 0 12.8-6.4 12.8-12.8s6.4-12.8 0-19.2c0-6.4-6.4-6.4-6.4-12.8h-12.8c-25.6 6.4-51.2 19.2-70.4 32-32 12.8-51.2 32-70.4 51.2-25.6 25.6-44.8 57.6-57.6 89.6-12.8 32-19.2 70.4-19.2 108.8 0 32 12.8 64 32 83.2 25.6 19.2 51.2 32 83.2 32s57.6-12.8 76.8-32c19.2-19.2 32-51.2 32-83.2 0-19.2 6.4-38.4 19.2-51.2 12.8-12.8 32-19.2 51.2-19.2 19.2 0 38.4 6.4 51.2 19.2 12.8 12.8 19.2 32 19.2 51.2 0 70.4-25.6 134.4-70.4 179.2C640 512 582.4 537.6 512 537.6c-51.2 0-96-12.8-134.4-38.4-38.4-25.6-70.4-64-89.6-108.8-12.8-19.2-19.2-32-19.2-51.2-6.4-19.2-6.4-38.4-6.4-57.6 0-12.8 0-32 6.4-57.6s6.4-51.2 19.2-76.8v-19.2c0-6.4-6.4-12.8-12.8-12.8H256c-6.4 0-6.4 6.4-12.8 12.8l-19.2 76.8c0 25.6-6.4 51.2-6.4 76.8 0 25.6 0 44.8 6.4 64l19.2 57.6c25.6 51.2 64 96 108.8 128 44.8 38.4 102.4 51.2 160 51.2 83.2 0 153.6-32 204.8-89.6 51.2-57.6 83.2-128 83.2-211.2 6.4-32-6.4-57.6-32-83.2z m57.6 275.2c-6.4-6.4-12.8-6.4-19.2-6.4-6.4 0-12.8 6.4-12.8 6.4-12.8 25.6-32 44.8-51.2 64-19.2 19.2-38.4 32-64 44.8-51.2 32-108.8 44.8-166.4 44.8-57.6 0-115.2-12.8-160-44.8-25.6-6.4-51.2-25.6-70.4-44.8-19.2-19.2-38.4-38.4-51.2-64l-6.4-6.4h-12.8-6.4-6.4L192 473.6v6.4 6.4s0 6.4 6.4 6.4c12.8 38.4 32 64 57.6 83.2 19.2 19.2 44.8 38.4 70.4 51.2C384 659.2 448 678.4 512 678.4s128-12.8 185.6-44.8c25.6-19.2 51.2-38.4 70.4-57.6 19.2-19.2 44.8-44.8 57.6-70.4 6.4-6.4 6.4-12.8 6.4-19.2 0-6.4-6.4-12.8-6.4-12.8z"  horiz-adv-x="1024" />

    
    <glyph glyph-name="nfc-" unicode="&#58902;" d="M524.8 820.5C284.1 820.5 88.3 624.7 88.3 384s195.8-436.5 436.5-436.5S961.4 143.3 961.4 384 765.5 820.5 524.8 820.5z m8.1-566.7c-13-18.2-26.1-18.2-36.1-11.5-9.7 6.4-162.6 123.2-170.8 126.5-8.5 3.3-11.5-4.9-3.3-48.9 8.2-45.5-5.2-58-16.7-59.8-11.2-0.9-45.8 8.2-47.6 100.4-1.5 91.9 23.1 106.8 34.6 106.8 21.5 0 186-147.5 197.2-146.2 10 1.5 14.9 64-4.3 113.5-21.8 53.4 2.7 62.5 2.7 62.5s18.2 8.2 29.7-4.9c11.5-13.4 41-64.3 41-115.3 0-50.9-12.7-105.2-26.4-123.1z m87-39.1c-5.3-5.3-12.3-8-19.2-8s-13.9 2.7-19.2 8c-10.6 10.6-10.6 27.8 0 38.5 30 30 46.5 69.9 46.5 112.3 0 42.4-16.5 82.3-46.5 112.3-10.6 10.6-10.6 27.8 0 38.5s27.8 10.6 38.5 0c40.3-40.3 62.4-93.8 62.4-150.7 0-57.1-22.2-110.6-62.5-150.9z m120.9-27.8c-5.3-5.3-12.3-8-19.2-8s-13.9 2.7-19.2 8c-10.6 10.6-10.6 27.8 0 38.5C744.7 267.7 768 324.1 768 384c0 59.9-23.3 116.3-65.7 158.6-10.6 10.6-10.6 27.8 0 38.5s27.8 10.6 38.5 0c52.7-52.7 81.6-122.6 81.6-197.1s-29-144.4-81.6-197.1z"  horiz-adv-x="1024" />

    
    <glyph glyph-name="nfc-1" unicode="&#58903;" d="M522.3 819.2c-240.7 0-436.5-195.8-436.5-436.6s195.8-436.5 436.5-436.5S958.9 142 958.9 382.7 763 819.2 522.3 819.2z m0-818.6c-210.7 0-382.1 171.4-382.1 382.1 0 210.7 171.4 382.1 382.1 382.1 210.7 0 382.1-171.4 382.1-382.1 0.1-210.7-171.4-382.1-382.1-382.1zM738.3 579.8c-10.6 10.6-27.8 10.6-38.5 0-10.6-10.6-10.6-27.8 0-38.5 42.4-42.4 65.7-98.7 65.7-158.6 0-59.9-23.3-116.2-65.7-158.6-10.6-10.6-10.6-27.8 0-38.5 5.3-5.3 12.3-8 19.2-8 7 0 13.9 2.7 19.2 8 52.7 52.7 81.6 122.6 81.6 197.1 0.1 74.4-28.9 144.4-81.5 197.1zM579 514.8c-10.6-10.6-10.6-27.8 0-38.5 30-30 46.5-69.9 46.5-112.3S609 281.7 579 251.7c-10.6-10.6-10.6-27.8 0-38.5 5.3-5.3 12.3-8 19.2-8 7 0 13.9 2.7 19.2 8 40.3 40.3 62.4 93.8 62.4 150.7s-22.2 110.5-62.4 150.7a26.806 26.806 0 0 1-38.4 0.2zM486.1 495.8s-24.6-9.1-2.7-62.5c19.1-49.5 14.3-112 4.3-113.5C476.5 318.6 312 466 290.5 466c-11.5 0-36.1-14.9-34.6-106.8 1.8-92.2 36.4-101.3 47.6-100.4 11.5 1.8 24.9 14.3 16.7 59.8-8.2 44-5.2 52.2 3.3 48.9 8.2-3.3 161.1-120.2 170.8-126.5 10-6.7 23.1-6.7 36.1 11.5 13.7 17.9 26.4 72.2 26.4 123.2s-29.4 101.9-41 115.3c-11.5 13-29.7 4.8-29.7 4.8z"  horiz-adv-x="1024" />

    
    <glyph glyph-name="qia1" unicode="&#58929;" d="M520.455604-95.901149c-262.752317 0-476.514851 213.762535-476.514852 476.514852s213.762535 476.514851 476.514852 476.514851 476.514851-213.762535 476.514851-476.514851-213.762535-476.514851-476.514851-476.514852z m0 932.752476c-251.579564 0-456.237624-204.658059-456.237624-456.237624 0-251.559287 204.658059-456.237624 456.237624-456.237624 251.559287 0 456.237624 204.678337 456.237624 456.237624 0 251.579564-204.678337 456.237624-456.237624 456.237624zM753.522059 573.247366H287.389149c-11.294416 0-20.398891-10.260277-20.398892-22.933544v-58.175367h506.930693v58.175367c0 12.673267-9.104475 22.933545-20.398891 22.933544z m-263.482297-223.049505h40.554456v40.554456h-40.554456v-40.554456z m-162.217821-81.108911h202.772277v40.554456h-202.772277v-40.554456z m121.663366 121.663367h-121.663366v-40.554456h121.663366v40.554456z m324.435643 81.108911v-261.900674c0-12.125782-9.104475-21.980515-20.398891-21.980514H287.389149c-11.294416 0-20.398891 9.854733-20.398892 21.980514V471.861228h506.930693z"  horiz-adv-x="1034" />

    
    <glyph glyph-name="shuaqia" unicode="&#58891;" d="M830.8 894.5c-212.5 0.9-425 1-637.6 0C80.9 893.9 8.6 824 7.7 712.4 6 497.3 6.1 282.2 7.7 67.1c0.9-114.8 72.4-182.5 186.8-182.6h635c118.1 0 187.9 69.9 187.9 188.7 0.1 210.8 0.1 421.6 0 632.4-0.1 116.5-70 188.3-186.6 188.9zM205.7 166.1c-18.7-22.9-20.3-23.7-36.7 1-46.7 70.4-69.1 148.3-70.8 231.1 1.4 84.7 24.1 161.6 70 231.4 4 6 7.3 20.7 17.3 12 9.2-7.9 28.3-15.5 16.9-34.4-13.8-22.7-26.9-45.8-36.2-70.7-45.2-120.4-32.3-234.9 35.3-343.9 4.8-7.8 14.3-14 4.2-26.5z m51.7 56.2c-10.9-10.9-16-11.1-23.9 2.4-31.1 52.9-46.5 109.9-47.8 173.8 1.2 54.7 13.9 109.2 42.3 159.4 3.8 6.6 7.2 23.2 17.2 15.6 9.8-7.5 28.9-15.8 18.1-36.5-16.3-31.2-27.3-64.1-32.7-99.3-9.6-63.4 1.4-122.9 31.7-178.4 8.7-16 7.3-24.8-4.9-37z m71.4 247.4c-0.8-5.8-3.6-11.4-5.4-17.1-11.5-37.8-13.6-76.4-0.4-113.5 9.2-25.8 9.8-45.6-19.9-62-37.3 72.1-39.3 145-7.1 219.2 1.7 3.9 4.5 12.7 10.1 7.6 10.3-9.1 25.1-16.6 22.7-34.2z m152.7-160.3c-15.1 0-18.6 5.4-18.3 19.4 0.8 37.6 1 75.2-0.1 112.7-0.4 15.6 6.1 17.9 19.6 18.1 14 0.2 17.6-5.1 17-18-0.9-19.6-0.2-39.3-0.2-58.9 0-17.9-0.7-35.9 0.2-53.8 0.7-14-3-19.6-18.2-19.5zM564.7 423c-0.1 0.3-0.2 0.7-0.4 1-0.2 0.7-0.5 1.4-0.8 2.1-0.2 0.4-0.3 0.7-0.5 1.1-0.3 0.7-0.7 1.5-1.1 2.2-0.8 1.5-1.8 3.1-2.9 4.7v-94.5c10 6.4 7.4 13.9 7.3 20-0.2 10.6 4.7 12.2 10.5 12.2 2.5 0 5.1-0.2 7.5-0.2 0.5 0 1.1 0 1.6 0.1 1.5 0.1 2.8 0.2 4.2 0.2 7 0 11.9-2.1 12.6-12.9 1.9-28.3-11-47-36.2-48.9-2-0.1-3.9-0.2-5.8-0.3-27.9-0.4-40.1 12.4-40.6 42.9-0.4 24-0.2 48 0.1 72 0.2 17.7 10 29.7 26.5 33.2 5.8 1.2 11.7 2.1 17.5 2.1 11.1-0.1 21.7-3.4 29.9-13.3 12-14.5 10.1-32.9 6.6-49.2-1-4.6-4.3-5.8-8.4-5.8-3.8 0-8.3 1-12.1 1-0.8 0-1.6 0-2.3-0.1-1.1-0.2-2.2-0.2-3.1-0.2-6.5 0.2-8.5 5-8.6 12.4 0.1 5.2 0.9 10.9-1.5 18.2z m164.1-157.4c-20.3 15.1-29 29.8-16.2 57.6 19.9 43.3 18.7 90.3 2.6 135.5-5.7 16-3.6 26.2 8 38.6 12.5 13.4 17.5 11.8 23.9-4 28-69.6 28-138.4-4.6-206.5-3.7-7.6-6.1-16.2-13.7-21.2z m53.2-61.1c-11.5 8.5-26.8 18.5-12.2 39.4 21.2 30.4 32.3 65.5 39 102.2 11.8 64.7 2.6 126.6-28.4 183.7-13 24 2.5 33.1 14.6 43.9 10 8.9 11.8-5.6 14.8-10.7 30.1-51.2 44.6-106.9 45.1-170.1-0.9-59.9-16.9-119.5-51.6-173.4-4.5-7.1-6.2-26.2-21.3-15z m75.5-50.1c-4.3-6.1-7.1-24.7-20.5-13.4-10.6 9-26.5 17.9-11.8 39.8 90.9 135.2 95 274.4 14.3 416-10.5 18.5-10.8 18.3 19 45 37.6-49.5 60.6-105.3 71.4-165.8 20.9-117-3.6-224.6-72.4-321.6z"  horiz-adv-x="1024" />

    
    <glyph glyph-name="NFCshibie" unicode="&#58950;" d="M512 384m-512 0a512 512 0 1 1 1024 0 512 512 0 1 1-1024 0ZM303.900444 175.900444h138.729245c9.250133 0 15.416889-6.166756 15.416889-15.416888S451.879822 145.066667 442.629689 145.066667H288.483556c-4.630756 0-7.702756 1.536-10.786134 4.619377-3.083378 3.083378-4.630756 6.166756-4.630755 10.797512V314.629689c0 9.250133 6.166756 15.416889 15.416889 15.416889s15.416889-6.166756 15.416888-15.416889V175.900444z m416.199112 0V314.629689c0 9.250133 6.166756 15.416889 15.416888 15.416889S750.933333 323.879822 750.933333 314.629689v-154.146133c0-4.630756-1.536-7.714133-4.619377-10.797512-3.083378-3.072-6.166756-4.619378-10.797512-4.619377H581.370311c-9.250133 0-15.416889 6.166756-15.416889 15.416889s6.166756 15.416889 15.416889 15.416888H720.099556zM303.900444 592.099556v-138.729245c0-9.250133-6.166756-15.416889-15.416888-15.416889S273.066667 444.120178 273.066667 453.370311V607.516444c0 4.630756 1.547378 7.702756 4.630755 10.786134 3.072 3.083378 6.155378 4.630756 10.786134 4.630755h154.146133c9.250133 0 15.416889-6.166756 15.416889-15.416889s-6.166756-15.416889-15.416889-15.416888H303.900444z m416.199112 0H581.370311c-9.250133 0-15.416889 6.166756-15.416889 15.416888S572.120178 622.933333 581.370311 622.933333h154.146133c4.630756 0 7.714133-1.547378 10.797512-4.630755 3.072-3.072 4.619378-6.155378 4.619377-10.786134v-154.146133c0-9.250133-6.166756-15.416889-15.416889-15.416889s-15.416889 6.166756-15.416888 15.416889V592.099556zM654.984533 416.267378c7.702756-6.155378 13.858133-15.394133 15.405511-26.168889h-12.322133c-1.536 7.691378-6.166756 13.846756-12.322133 18.466133-6.155378 4.630756-13.858133 6.166756-21.560889 6.166756-12.322133 0-23.096889-4.619378-29.252267-13.858134-6.166756-7.702756-9.250133-18.477511-9.250133-32.347022 0-13.858133 3.083378-24.632889 9.250133-32.335644 6.155378-7.702756 16.930133-12.322133 29.252267-12.322134 9.238756 0 15.405511 1.536 21.560889 6.166756 6.155378 4.619378 10.786133 12.310756 12.322133 21.549511h12.322133c-3.083378-12.310756-7.702756-23.096889-16.952888-29.252267-9.227378-6.166756-18.466133-9.238756-30.788267-9.238755-16.952889 0-30.799644 6.155378-38.5024 16.941511-7.702756 10.774756-12.322133 23.096889-12.322133 40.0384 0 16.930133 4.619378 29.252267 12.322133 40.0384 9.238756 12.322133 23.096889 16.941511 40.049778 16.941511 10.774756 0 21.549511-3.083378 30.788266-10.786133z m-93.934933 7.702755v-10.774755h-61.599289v-36.9664h56.979911v-10.774756h-56.979911v-50.824533h-12.322133v109.340444h73.921422z m-170.939733 0l61.599289-89.315555v89.315555h12.322133v-109.340444H451.697778l-63.146667 90.862933v-90.862933H376.263111v109.340444h13.858133z"  horiz-adv-x="1024" />

    
    <glyph glyph-name="ID" unicode="&#59099;" d="M511.642 896C229.018 896 0 666.931 0 384.358s229.069-511.641 511.642-511.641 511.641 229.069 511.641 511.641C1023.283 666.982 794.214 896 511.642 896zM361.37 126.566H215.757V619.162H361.37v-492.596z m459.622 68.301c-48.026-47.001-109.824-70.502-185.344-70.502-2.918 0-17.408 0.512-43.366 1.485V270.592h23.552c85.299 0 128 35.43 128 106.342 0 66.97-41.984 100.455-125.799 100.455h-49.254v-350.823H423.168V619.162h189.696c86.784 0 155.187-21.914 205.21-65.741 50.022-43.827 75.008-102.656 75.008-176.487 0-74.342-24.064-135.065-72.09-182.067z"  horiz-adv-x="1024" />

    
    <glyph glyph-name="id1" unicode="&#58927;" d="M785.066667 99.555556c11.377778 11.377778 28.444444 11.377778 39.822222 0 11.377778-11.377778 11.377778-28.444444 0-39.822223C745.244444-25.6 631.466667-71.111111 512-71.111111c-250.311111 0-455.111111 210.488889-455.111111 460.8S261.688889 839.111111 512 839.111111s455.111111-210.488889 455.111111-460.8c0-45.511111-5.688889-85.333333-17.066667-130.844444-5.688889-17.066667-22.755556-22.755556-39.822222-11.377778-11.377778 5.688889-17.066667 17.066667-17.066666 28.444444 11.377778 39.822222 17.066667 73.955556 17.066666 113.777778 0 216.177778-176.355556 398.222222-392.533333 398.222222C301.511111 782.222222 113.777778 605.866667 113.777778 384c0-216.177778 182.044444-398.222222 398.222222-398.222222 102.4 0 199.111111 39.822222 273.066667 113.777778zM284.444444 190.577778V577.422222h51.2v-386.844444H284.444444z m136.533334 0V577.422222h130.844444c22.755556 0 45.511111 0 68.266667-5.688889 22.755556-5.688889 39.822222-11.377778 56.888889-28.444444 22.755556-17.066667 34.133333-39.822222 45.511111-68.266667 17.066667-28.444444 17.066667-56.888889 17.066667-91.022222 0-28.444444-5.688889-51.2-11.377778-79.644444-5.688889-22.755556-17.066667-39.822222-28.444445-56.888889-11.377778-11.377778-22.755556-28.444444-34.133333-34.133334-11.377778-11.377778-28.444444-17.066667-45.511111-17.066666-22.755556-5.688889-39.822222-5.688889-62.577778-5.688889H420.977778z m51.2 45.511111h79.644444c22.755556 0 39.822222 0 62.577778 5.688889 11.377778 5.688889 22.755556 11.377778 34.133333 22.755555 11.377778 11.377778 22.755556 28.444444 28.444445 51.2 5.688889 22.755556 11.377778 51.2 11.377778 73.955556 0 39.822222-5.688889 73.955556-17.066667 91.022222-11.377778 17.066667-28.444444 34.133333-45.511111 45.511111-11.377778 5.688889-34.133333 5.688889-68.266667 5.688889H472.177778v-295.822222z"  horiz-adv-x="1024" />

    
    <glyph glyph-name="zhiwen-xianxing" unicode="&#59378;" d="M725.333 341.333v-42.666c0-118.187-28.33-232.32-81.706-334.763l-9.686-17.92-74.538 41.557c49.493 88.747 77.226 188.16 80.298 291.67l0.299 19.456v42.666h85.333z m-256 128h85.334v-170.666l-0.214-16.171a552.15 552.15 0 0 0-114.816-322.09l-9.856-12.374-66.133 53.93a466.944 466.944 0 0 1 105.43 281.089l0.255 15.616V469.333zM512 640a213.333 213.333 0 0 0 213.333-213.333H640a128 128 0 0 1-256 0v-128c0-95.36-34.987-185.344-96.896-255.019l-9.045-9.813-61.782 58.88a297.344 297.344 0 0 1 82.134 193.024l0.256 12.928v128A213.333 213.333 0 0 0 512 640z m0 170.667a384 384 0 0 0 384-384v-128c0-72.448-8.619-143.787-25.472-212.907l-5.93-22.997-82.347 22.442c16.725 61.312 26.154 124.672 28.074 189.227l0.342 24.235v128A298.667 298.667 0 0 1 333.14 665.856l-60.8 60.843A382.379 382.379 0 0 0 512 810.667zM211.968 666.325l60.843-60.8a297.216 297.216 0 0 1-59.307-168.576l-0.17-10.282 0.17-85.334c0-47.786-11.264-93.994-32.512-135.552l-6.656-12.373-74.112 42.325a211.2 211.2 0 0 1 27.563 93.142l0.384 12.458v85.334a381.44 381.44 0 0 0 83.797 239.658z"  horiz-adv-x="1024" />

    
    <glyph glyph-name="dengpao" unicode="&#58897;" d="M512.095167 830.709995c-159.675676 0-291.461141-132.104737-291.461141-294.480918 0-99.006921 38.960337-178.750103 116.649743-231.970212l0-95.180779c0-10.843976 6.385431-21.195741 14.307867-28.54922 7.15905-6.643304 17.454534-10.29446 27.121707-10.29446 1.032516 0 2.533706 0.042979 3.570315 0.12382l267.163759 21.518083c20.058848 1.627057 37.434587 18.47477 37.434587 38.715767l0 73.02313c67.977207 49.285496 116.483968 134.508483 116.483968 232.614895C803.365974 698.605258 671.76982 830.709995 512.095167 830.709995zM628.192326 359.964584c-12.589736-6.747681-18.998703-19.928888-18.998703-34.282804l0-59.252499-194.22147-15.249309 0 74.478272c0 13.81668-5.649674 26.591635-17.512862 33.553187-66.86692 39.237653-98.546434 97.139387-98.546434 177.018669 0 119.53956 95.675036 216.791511 212.770941 216.791511 117.095905 0 213.293851-97.252974 213.293851-216.791511C724.977649 458.65428 689.378873 392.758478 628.192326 359.964584zM683.397648 109.240239c1.546216-21.399379-14.440897-40.006156-35.707246-41.556465L382.452505 48.300308c-0.951675-0.071631-1.899256-0.104377-2.841721-0.104377-20.050662 0-36.989449 15.591093-38.465057 36.028565-1.546216 21.399379 14.440897 40.006156 35.706223 41.556465l265.237897 19.384489C663.310148 146.738271 681.856549 130.640642 683.397648 109.240239zM598.893023-13.428591c1.635243-21.389146-14.271028-40.067554-35.533284-41.713031l-96.245018-7.453762c-1.007957-0.075725-2.01182-0.113587-3.006474-0.113587-19.980054 0-36.895305 15.486716-38.455847 35.861766-1.635243 21.389146 14.272052 40.066531 35.534308 41.713031l96.243995 7.453762C578.725704 23.869896 597.253686 7.961578 598.893023-13.428591zM666.877393 536.949484c-1.701758-17.558911-16.401552-30.693046-33.58184-30.693046-1.098008 0-2.206248 0.056282-3.322675 0.164752-18.570961 1.820462-32.153304 18.441001-30.344099 37.128619 5.387707 55.587016-43.144636 75.322499-48.691979 77.389578-17.386996 6.477528-26.492374 25.889647-20.214391 43.434232 6.277984 17.548678 25.281803 26.780947 42.777269 20.641109C609.532337 672.350291 675.423023 625.107313 666.877393 536.949484z"  horiz-adv-x="1024" />

    
    <glyph glyph-name="dengpao1" unicode="&#59053;" d="M469.3-21.3h85.3V-64h-85.3zM384 149.4h256v-42.7H384zM384 64h256v-42.7H384zM512 832c-164.9 0-298.6-133.7-298.6-298.6 0-119 69.9-221.5 170.7-269.5V192h256v71.9c100.7 48 170.6 150.4 170.6 269.4C810.6 698.3 677 832 512 832z"  horiz-adv-x="1024" />

    
    <glyph glyph-name="wenbenbianjitianchong" unicode="&#59092;" d="M384.8192 110.3872c20.7872 25.8048 45.2608 49.4592 68.5056 73.1136 63.2832 64.4096 126.6688 128.9216 189.952 193.3312 59.0848 60.1088 118.1696 120.2176 177.152 180.3264 13.2096 13.4144 25.8048 29.7984 40.5504 41.472 15.36 12.0832 25.6 4.5056 37.5808-7.7824 10.5472-10.8544 20.7872-22.016 31.1296-32.9728 2.3552-2.56 15.9744-13.2096 15.9744-16.896 0 0-0.3072 258.4576-0.3072 258.4576 0 38.6048-31.4368 70.0416-70.0416 70.0416L135.7824 869.4784c-38.6048 0-70.0416-31.4368-70.0416-70.0416l0-812.6464c0-38.6048 31.4368-70.0416 70.0416-70.0416l183.7056-0.9216 36.4544 136.704C356.0448 52.5312 364.544 85.1968 384.8192 110.3872zM461.2096 463.7696 207.36 463.7696c-11.9808 0-21.7088 9.728-21.7088 21.7088 0 11.9808 9.728 21.7088 21.7088 21.7088l253.8496 0c11.9808 0 21.7088-9.728 21.7088-21.7088C483.0208 473.4976 473.1904 463.7696 461.2096 463.7696zM637.952 578.3552 207.36 578.3552c-11.9808 0-21.7088 9.728-21.7088 21.7088 0 11.9808 9.728 21.7088 21.7088 21.7088L637.952 621.7728c11.9808 0 21.7088-9.728 21.7088-21.7088C659.6608 588.0832 649.9328 578.3552 637.952 578.3552zM758.1696 693.0432 207.36 693.0432c-11.9808 0-21.7088 9.728-21.7088 21.7088 0 11.9808 9.728 21.7088 21.7088 21.7088l550.8096 0c11.9808 0 21.7088-9.728 21.7088-21.7088C779.8784 702.7712 770.1504 693.0432 758.1696 693.0432zM992.5632 394.5472 891.4944 495.616c-10.752 10.752-29.5936 10.752-40.3456 0L428.2368 72.9088c-1.7408-1.7408-3.072-3.9936-3.6864-6.3488l-42.2912-151.6544c-1.3312-4.8128-0.1024-10.0352 3.2768-13.7216 2.7648-2.9696 6.656-4.7104 10.6496-4.7104 0.9216 0 1.7408 0.1024 2.6624 0.2048L562.176-72.704c2.8672 0.512 5.5296 1.9456 7.5776 3.9936l422.912 422.8096C1003.7248 365.2608 1003.7248 383.3856 992.5632 394.5472zM927.1296 310.6816c-5.4272-5.4272-13.9264-5.7344-19.0464-0.6144l-100.864 100.864c-5.12 5.12-4.8128 13.6192 0.6144 19.0464 5.4272 5.4272 14.0288 5.7344 19.0464 0.6144l100.864-100.864C932.864 324.7104 932.5568 316.1088 927.1296 310.6816z"  horiz-adv-x="1024" />

    
    <glyph glyph-name="wenbenbianji" unicode="&#59093;" d="M247.0912-100.1472 100.5568-100.1472c-39.936 0-72.4992 32.5632-72.4992 72.4992L28.0576 814.08c0 39.936 32.5632 72.4992 72.4992 72.4992l766.0544 0c39.936 0 72.4992-32.5632 72.4992-72.4992l0-210.5344c0-12.3904-10.0352-22.528-22.528-22.528s-22.528 10.0352-22.528 22.528L894.0544 814.08c0 15.1552-12.288 27.5456-27.5456 27.5456L100.5568 841.6256c-15.1552 0-27.5456-12.288-27.5456-27.5456L73.0112-27.648c0-15.1552 12.288-27.5456 27.5456-27.5456l146.5344 0c12.3904 0 22.528-10.0352 22.528-22.528S259.4816-100.1472 247.0912-100.1472zM745.2672 703.8976 174.6944 703.8976c-12.3904 0-22.528 10.0352-22.528 22.528s10.0352 22.528 22.528 22.528l570.5728 0c12.3904 0 22.528-10.0352 22.528-22.528S757.6576 703.8976 745.2672 703.8976zM437.6576 466.3296 174.6944 466.3296c-12.3904 0-22.528 10.0352-22.528 22.528s10.0352 22.528 22.528 22.528l262.9632 0c12.3904 0 22.528-10.0352 22.528-22.528S450.1504 466.3296 437.6576 466.3296zM620.6464 585.1136 174.6944 585.1136c-12.3904 0-22.528 10.0352-22.528 22.528s10.0352 22.528 22.528 22.528l445.952 0c12.3904 0 22.528-10.0352 22.528-22.528S633.1392 585.1136 620.6464 585.1136zM399.6672-113.8688c-6.2464 0-12.288 2.56-16.5888 7.2704-5.2224 5.7344-7.168 13.7216-5.12 21.2992l40.8576 146.6368c1.024 3.6864 3.072 7.168 5.7344 9.8304l408.9856 408.9856c14.1312 14.0288 36.9664 14.0288 51.0976 0l97.792-97.792c6.8608-6.8608 10.5472-15.872 10.5472-25.4976s-3.7888-18.7392-10.5472-25.4976L928.8704 277.504c-4.1984-4.1984-9.9328-6.5536-15.872-6.5536s-11.6736 2.3552-15.872 6.5536l-66.048 66.048c-8.8064 8.8064-8.8064 23.04 0 31.8464s23.04 8.8064 31.8464 0l50.176-50.176 31.4368 31.4368L859.136 441.9584 460.6976 43.52 431.104-62.6688 546.7136-40.96l231.7312 231.7312c5.0176 5.4272 50.7904 52.6336 107.2128 56.7296 12.3904 0.9216 23.1424-8.3968 24.064-20.7872 0.9216-12.3904-8.3968-23.1424-20.7872-24.064-40.3456-2.9696-77.4144-42.2912-77.824-42.7008-0.2048-0.2048-0.4096-0.512-0.7168-0.7168L573.5424-77.7216c-3.1744-3.1744-7.2704-5.3248-11.776-6.2464l-158.0032-29.5936C402.432-113.7664 401.1008-113.8688 399.6672-113.8688z"  horiz-adv-x="1024" />

    
    <glyph glyph-name="shezhi2" unicode="&#58907;" d="M1024.045786 310.857143V457.142857a24.380952 24.380952 0 0 1-24.426738 24.403845h-57.40398c-29.577644 0-56.682853 17.638989-67.534093 45.167718q-2.541113 6.478694-5.311156 12.831478c-11.801297 27.139548-5.196691 58.743215 15.727431 79.667337l35.644266 35.644266c14.628571 14.628571 14.525553 29.955377 5.002101 39.478828l-103.441627 103.441628a24.380952 24.380952 0 0 1-34.476727 0l-40.623474-40.623475c-20.924123-20.924123-52.550682-27.563067-79.690231-15.76177q-6.352783 2.770042-12.831478 5.311156c-27.471496 10.816901-45.167717 37.876325-45.167717 67.453968v50.364409c0 20.695193-10.91992 31.454863-24.380952 31.454862H438.902929a24.380952 24.380952 0 0 1-24.380953-24.380952v-57.449766c0-29.577644-17.638989-56.682853-45.167717-67.534093q-6.478694-2.541113-12.831478-5.311156c-27.139548-11.801297-58.766108-5.173798-79.69023 15.761771l-40.623474 40.623474a24.380952 24.380952 0 0 1-34.476727 0l-103.441628-103.441628a24.380952 24.380952 0 0 1 0-34.476727l40.623474-40.623474c20.924123-20.924123 27.563067-52.550682 15.761771-79.69023q-2.770042-6.352783-5.311156-12.831478c-10.816901-27.471496-37.910664-45.167717-67.534093-45.167717H24.380952a24.380952 24.380952 0 0 1-24.380952-24.380953v-146.285714a24.380952 24.380952 0 0 1 24.380952-24.312274h57.449766c29.577644 0 56.682853-17.638989 67.534093-45.167717q2.541113-6.478694 5.311156-12.831478c11.801297-27.139548 5.173798-58.766108-15.761771-79.69023l-40.623474-40.623474a24.380952 24.380952 0 0 1 0-34.476727l103.441628-103.441628a24.380952 24.380952 0 0 1 34.476727 0l40.623474 40.623474c20.924123 20.924123 52.550682 27.563067 79.69023 15.761771q6.352783-2.770042 12.831478-5.311156c27.471496-10.816901 45.167717-37.876325 45.167717-67.453968v-50.364409c0-20.695193 10.91992-31.454863 24.380953-31.454862h146.285714a24.380952 24.380952 0 0 1 24.380952 24.380952v57.438319c0 29.577644 17.638989 56.682853 45.167718 67.534093q6.478694 2.541113 12.831478 5.311156c27.139548 11.801297 58.766108 5.173798 79.69023-15.76177l40.600581-40.715046a24.380952 24.380952 0 0 1 34.476727 0l103.441628 103.441627a24.380952 24.380952 0 0 1 0 34.476727l-40.623475 40.634921c-20.924123 20.924123-27.563067 52.550682-15.76177 79.69023q2.770042 6.352783 5.311156 12.831478c10.816901 27.471496 37.910664 45.167717 67.534093 45.167717h57.381087a24.380952 24.380952 0 0 1 24.426738 24.380953z m-512.045786-73.119964a146.285714 146.285714 0 1 0 146.285714 146.285714 146.285714 146.285714 0 0 0-146.285714-146.285714z"  horiz-adv-x="1024" />

    
    <glyph glyph-name="yiliaozhiliangfenxi" unicode="&#59013;" d="M898.2 660.8l-0.5 8.3c-0.7 11.1-2.4 21.9-4 32.4-0.7 4.2-1.3 8.5-1.9 12.8l-3.1 22.2-22.3-4.9c-1.8-0.4-3.1-0.7-4.1-0.9-1.7-0.3-2.9-0.6-4.1-0.9l-0.4-0.1c-34.6-9.7-68.5-14.5-100.8-14.5-69.4 0-134.9 22.8-194.7 67.8-9.6 7.2-21 14.9-35.4 14.9-12.1 0-22.2-5.2-33.7-13-62.8-42.8-123.7-63.7-186.3-63.7-7.7 0-15.6 0.3-23.5 1-25.2 2-50.2 6.2-76.7 10.7-12.4 2.1-25.2 4.2-38.1 6.2l-17.9 2.7-5.2-16.7-0.1-0.4c-0.9-2.4-2.7-7.4-3.4-13.2-1.7-14.7-3.5-29.4-5.3-44.1-4.8-39.5-9.8-80.4-13.3-121-7.4-86.3-0.1-162.3 22.5-232.3 24.8-77.1 62.2-142.3 111-193.8 50.5-53.3 114.9-93.7 191.4-119.9 14.2-4.9 27.9-11.3 42.5-18.1 8.2-3.9 16.7-7.8 25.5-11.6 4.1-1.7 8.8-2.6 13.6-2.6 4.1 0 10.4 0.7 16.3 3.7 8.1 4.1 15.9 8.5 23.5 12.7 12.3 6.9 23.9 13.4 35.8 18.3 62.2 25.5 108.9 54.6 146.8 91.7C827.1 168 872.2 263.1 894 393.6c15.1 89.1 9.6 179.7 4.2 267.2z m-602-408.1c24.5 40.4 36.7 98.1 36.7 173.2V606.6c113.7-0.8 229.5 4.8 347.2 16.9l26.2-52.1-128-9.1v-34.9h120.4v-47.8H578.3v-28.8h106v-147.3h-54.9V403H473.1v-99.5h-54.9V450.8h102.2v28.8H406v47.8h114.5V559c-45.8-2.5-89.1-4.4-130.1-5.7v-130c0-95.7-15.6-167.1-46.9-214.2-11.8 12.4-27.6 27-47.3 43.6z m384.3-42.3c-42.8 24.3-85.6 46.9-128.4 67.7-27-31-74.6-54.2-142.8-69.4-9.9 19.5-19.4 36-28.7 49.5 52.9 11.1 90.1 24.8 111.4 41.1 21.3 16.2 32.8 45.6 34.3 88.1h59.1c-0.7-26-4.4-48.7-11.2-68.2 40.3-15.4 87.1-34.7 140.4-58l-34.1-50.8z"  horiz-adv-x="1024" />

    
    <glyph glyph-name="tubiao1" unicode="&#58899;" d="M479.651244 766.78201C250.383584 766.78201 64.523549 580.924022 64.523549 351.652268c0-229.265614 185.860035-415.127695 415.127695-415.127695 229.27073 0 415.127695 185.862082 415.127695 415.127695L479.651244 351.652268 479.651244 766.78201zM544.345686 831.476451l0-415.129742 415.129742 0C959.475428 645.618463 773.616416 831.476451 544.345686 831.476451z"  horiz-adv-x="1024" />

    
    <glyph glyph-name="tubiao" unicode="&#58995;" d="M480.2-62.7c-228.1 0-413.5 185.5-413.5 413.5 0.7 183.3 121.3 344.6 297 396.9 17.8 4.1 35.7-6.4 40.9-24 5.1-17.6-4.3-36.1-21.5-42.2-146.4-43.6-246.9-178-247.5-330.7 0-190 154.6-344.6 344.6-344.6 151.6-0.6 285.5 98.4 329.4 243.4 5.6 18.2 24.9 28.5 43.1 22.9 18.2-5.6 28.5-24.9 22.9-43.1C823 55.3 662.1-63.5 480.2-62.7z m445.7 412.3c-9.1 0-17.9 3.6-24.4 10.1s-10.1 15.2-10.1 24.4c0 209-170.1 379.1-379.1 379.1-19 0-34.5 15.4-34.5 34.5 0 19 15.4 34.5 34.5 34.5 247 0 448-201 448-448 0-19.2-15.4-34.6-34.4-34.6z m0 0M512.4 832.1c-19 0-34.5-15.4-34.5-34.5v-413.5c0-19 15.4-34.5 34.5-34.5 19 0 34.5 15.4 34.5 34.5V797.6c-0.1 19-15.5 34.5-34.5 34.5z m0 0M925.9 418.5H512.4c-19 0-34.5-15.4-34.5-34.5 0-19 15.4-34.5 34.5-34.5h413.5c19 0 34.5 15.4 34.5 34.5-0.1 19.1-15.5 34.5-34.5 34.5z m0 0"  horiz-adv-x="1024" />

    
    <glyph glyph-name="property-safety" unicode="&#59138;" d="M906.976198 764.786436L528.80513 893.662863C524.242148 895.220954 518.121074 896 512 896s-12.242148-0.779046-16.80513-2.337137L117.023802 764.786436c-9.237257-3.116183-16.80513-13.800239-16.80513-23.593957v-536.873818c0-9.793718 6.343658-22.703619 14.022823-28.824693L497.865884-123.437018c3.895229-3.004891 8.90338-4.562982 14.022824-4.562982s10.238887 1.558092 14.022823 4.562982l383.624389 298.930986c7.679165 6.009782 14.022824 18.919683 14.022824 28.824693V741.192479c0.222585 9.793718-7.345289 20.366482-16.582546 23.593957zM663.691338 583.49136l-97.603304-179.291816h50.860559c6.121074 0 11.129225-5.008151 11.129225-11.129226v-23.705249c0-6.121074-5.008151-11.129225-11.129225-11.129225h-70.559287v-33.053799h70.559287c6.121074 0 11.129225-5.008151 11.129225-11.129225v-23.705249c0-6.121074-5.008151-11.129225-11.129225-11.129225h-70.559287V221.56896c0-6.121074-5.008151-11.129225-11.129226-11.129225h-45.963699c-6.121074 0-11.129225 5.008151-11.129225 11.129225v57.649386h-70.225411c-6.121074 0-11.129225 5.008151-11.129225 11.129225v23.705249c0 6.121074 5.008151 11.129225 11.129225 11.129225h70.225411v33.053799h-70.225411c-6.121074 0-11.129225 5.008151-11.129225 11.129225v23.705249c0 6.121074 5.008151 11.129225 11.129225 11.129226h50.304098l-97.937181 179.291816c-2.893599 5.342028-1.00163 12.130855 4.45169 15.135746 1.669384 0.890338 3.45006 1.335507 5.342028 1.335507h51.194436c4.229106 0 8.013042-2.337137 9.90501-6.121074l81.132051-160.594718 81.465927 160.594718a11.129225 11.129225 0 0 0 9.905011 6.121074h50.081513c6.121074 0 11.129225-5.008151 11.129225-11.129225 0.111292-1.891968-0.333877-3.672644-1.224215-5.342028z"  horiz-adv-x="1024" />

    
    <glyph glyph-name="shezhi1" unicode="&#58900;" d="M512 559.73442c-96.899934 0-175.73442-78.834486-175.73442-175.73442 0-96.900957 78.834486-175.735443 175.73442-175.735443s175.73442 78.834486 175.73442 175.735443C687.73442 480.900957 608.899934 559.73442 512 559.73442zM512 269.662929c-63.044872 0-114.336048 51.291177-114.336048 114.337071 0 63.044872 51.291177 114.336048 114.336048 114.336048s114.336048-51.291177 114.336048-114.336048C626.336048 320.955128 575.044872 269.662929 512 269.662929zM934.902776 313.422571l-56.914244 32.859385c1.274016 12.503778 1.917676 25.146727 1.917676 37.718043 0 12.571317-0.64366 25.214265-1.917676 37.718043l56.916291 32.860409c21.584598 12.463869 29.005614 40.163745 16.542768 61.746296L846.321298 698.410829c-12.461823 21.585621-40.163745 29.005614-61.748343 16.545838l-56.915267-32.860409c-20.451798 14.820544-42.348504 27.486004-65.328891 37.786605L662.328797 785.534096c0 24.924669-20.276812 45.202505-45.202505 45.202505L406.872684 830.736601c-24.924669 0-45.202505-20.277836-45.202505-45.202505l0-65.651232c-22.979364-10.3006-44.87607-22.966061-65.327868-37.786605l-56.916291 32.860409c-21.585621 12.462846-49.285496 5.040806-61.747319-16.545838L72.551386 516.324748c-12.461823-21.585621-5.039783-49.285496 16.545838-61.747319l56.914244-32.859385c-1.274016-12.504802-1.917676-25.146727-1.917676-37.718043 0-12.571317 0.64366-25.215288 1.917676-37.718043l-56.914244-32.859385c-21.584598-12.461823-29.007661-40.161698-16.545838-61.748343l105.127316-182.087105c12.463869-21.583574 40.161698-29.005614 61.747319-16.542768l56.915267 32.860409c20.451798-14.81952 42.35055-27.486004 65.328891-37.786605l0-65.651232c0-24.924669 20.277836-45.203528 45.202505-45.203528l210.253608 0c24.924669 0 45.202505 20.277836 45.202505 45.203528l0 65.651232c22.979364 10.299577 44.87607 22.965038 65.328891 37.786605l56.915267-32.860409c21.582551-12.463869 49.28345-5.039783 61.748343 16.544815l105.126292 182.085058C963.909413 273.258827 956.488397 300.958702 934.902776 313.422571zM801.246707 114.314815l-52.136428 30.101575c-15.928784 9.195429-35.611056 7.895831-50.14405-3.310396-21.530362-16.600073-45.131897-30.250978-70.148663-40.573067-16.940834-6.991228-27.887141-23.3805-27.887141-41.751916l0-60.118216L423.068552-1.337205l0 60.118216c0 18.371416-10.946306 34.760688-27.888164 41.751916-25.016767 10.323113-48.617277 23.974018-70.14457 40.571021-14.531971 11.207249-34.217313 12.509918-50.14712 3.311419l-52.135404-30.100552L133.821845 268.34798l52.114938 30.088272c15.895015 9.17701 24.616654 26.840298 22.217001 45.001937-1.766226 13.362332-2.662643 27.009144-2.662643 40.561811 0 13.552667 0.895393 27.200502 2.662643 40.563858 2.39863 18.158568-6.321986 35.821857-22.217001 44.998867l-52.114938 30.089295 88.931448 154.033166 52.135404-30.100552c15.925714-9.196453 35.610032-7.897877 50.145074 3.308349 21.529339 16.600073 45.130873 30.250978 70.146617 40.574091 16.941857 6.990205 27.889187 23.378453 27.889187 41.751916l0 60.118216L600.930425 769.337205l0-60.118216c0-18.373463 10.94733-34.762735 27.889187-41.751916 25.015743-10.32209 48.617277-23.972994 70.149687-40.576137 14.534018-11.20418 34.217313-12.500709 50.142004-3.306302l52.135404 30.100552 88.930425-154.033166-52.115961-30.089295c-15.895015-9.178033-24.615631-26.840298-22.215978-45.000913 1.76725-13.361309 2.662643-27.009144 2.662643-40.561811 0-13.553691-0.895393-27.200502-2.662643-40.563858-2.399653-18.158568 6.320962-35.821857 22.217001-44.99989l52.115961-30.088272L801.246707 114.314815z"  horiz-adv-x="1024" />

    
    <glyph glyph-name="jiankongmianban" unicode="&#58928;" d="M752.4 566.4c-6.7 6.4-15.9 9.5-25.2 8.6-9.3-1-17.7-5.9-23-13.5L601.4 415.1l-75 237.9c-3.7 11.6-13.5 20.1-25.4 22-11.9 1.9-23.9-3-31-12.8L362.1 513.9l-38.2 41.7a31.934 31.934 0 0 1-43.5 3.4l-114-90.6c-13.8-11-16.1-31.2-5.1-45 11-13.8 31.2-16.1 45-5.1l90.6 72 44.5-48.6c6.5-7.1 15.8-10.8 25.4-10.3 9.6 0.5 18.5 5.3 24.1 13.1l93.6 128.7L559.9 334c3.6-11.6 13.6-20.1 25.6-22 1.6-0.3 3.3-0.4 4.9-0.4 10.3 0 20.1 5 26.2 13.6l118.7 169.3 80.2-76.2c12.8-12.1 33-11.6 45.2 1.2 12.1 12.8 11.6 33-1.2 45.2L752.4 566.4zM868.6 799.3H155.3C108.3 799.3 70 761 70 714v-443.6c0-47 38.3-85.3 85.3-85.3H480v-152.3H183c-17.7 0-32-14.3-32-32s14.3-32 32-32h658c17.7 0 32 14.3 32 32s-14.3 32-32 32H544V185.10000000000002h324.7c47 0 85.2 38.2 85.2 85.3V714c0 47-38.3 85.3-85.3 85.3z m21.3-529c0-11.8-9.6-21.3-21.3-21.3H514.4c-0.8 0.1-1.6 0.1-2.4 0.1s-1.6 0-2.4-0.1H155.3c-11.8 0-21.3 9.6-21.3 21.3V713.9c0 11.8 9.6 21.3 21.3 21.3v0.1h713.3c11.8 0 21.3-9.6 21.3-21.3v-443.7z"  horiz-adv-x="1024" />

    
    <glyph glyph-name="jiankongmianban-mianxing" unicode="&#58978;" d="M900.6 785.9H123.4c-32.1 0-58.1-26-58.1-58.1v-483.4c0-32.1 26-58.1 58.1-58.1h355.9v-171.5h-296c-18.1 0-32.8-14.7-32.8-32.8s14.7-32.8 32.8-32.8h657.4c18.1 0 32.8 14.7 32.8 32.8s-14.7 32.8-32.8 32.8H544.8V186.4h355.9c32.1 0 58.1 26 58.1 58.1V727.8c-0.1 32.1-26.1 58.1-58.2 58.1z m-46.1-368.2c-9.1-9.5-24.1-9.9-33.6-0.9l-87 82.6-124-176.7c-4.5-6.4-11.8-10.1-19.5-10.1-1.2 0-2.4 0.1-3.6 0.3-8.9 1.4-16.3 7.7-19.1 16.4l-80.2 254.4L384.4 442c-4.2-5.8-10.8-9.4-17.9-9.8-7.2-0.5-14.1 2.4-18.9 7.7L298 494.1l-96.4-76.6c-10.3-8.2-25.3-6.5-33.4 3.8-8.2 10.3-6.5 25.3 3.8 33.4l113.8 90.4c9.8 7.8 23.9 6.6 32.3-2.6l45-49.1 113.7 156.3c5.3 7.3 14.2 10.9 23.1 9.5 8.9-1.4 16.2-7.8 18.9-16.3l79.9-253.5 112.2 159.8c4 5.7 10.2 9.3 17.1 10 6.9 0.7 13.7-1.7 18.7-6.4l107-101.6c9.4-9 9.8-24 0.8-33.5z"  horiz-adv-x="1024" />

    
    <glyph glyph-name="pinzhi" unicode="&#58932;" d="M977.931889 724.95356v10.501548a392.272446 392.272446 0 0 1-4.606812 39.628483 110.414861 110.414861 0 0 0-2.328173 15.653251l-3.566563 28.185759-27.690403-6.142415h-9.907121a457.560372 457.560372 0 0 0-121.01548-19.467493 380.829721 380.829721 0 0 0-234.650154 84.210527A70.5387 70.5387 0 0 1 531.219814 896 69.003096 69.003096 0 0 1 490.105263 879.851393a389.547988 389.547988 0 0 0-225.337461-76.928792h-27.690403c-30.266254 2.575851-60.532508 7.430341-92.582043 13.077399l-46.167183 8.173375-21.547987 3.318885L70.390093 806.835913a59.145511 59.145511 0 0 1-4.111455-16.396285c-1.287926-18.278638-4.359133-36.755418-6.439629-55.232198C54.19195 686.464396 47.801858 636.235294 43.195046 586.452012a726.489164 726.489164 0 0 1 27.690403-286.464396 618.006192 618.006192 0 0 1 133.74613-237.770898 564.309598 564.309598 0 0 1 230.786378-148.606811 476.681115 476.681115 0 0 0 51.26935-22.291022l31.009287-14.117647a40.074303 40.074303 0 0 1 16.396285-3.318885l-1.287925-1.783282a43.839009 43.839009 0 0 1 19.814241 4.606811l27.938081 15.405573a383.900929 383.900929 0 0 0 43.343653 22.588235 536.817337 536.817337 0 0 1 177.188854 112.842106c90.25387 90.154799 145.040248 207.603715 171.442725 368.148606a1472.594427 1472.594427 0 0 1 5.399381 329.263158z m-54.09288-319.009288c-25.659443-149.74613-73.609907-256.44582-156.928792-340.557275a485.74613 485.74613 0 0 0-161.287926-102.588235 467.318885 467.318885 0 0 1-48.990712-25.659443l-23.083591-12.829721-25.659443 12.037151a563.764706 563.764706 0 0 1-55.628483 25.659443C285.52322 21.003096 174.216718 136.668731 118.588235 315.93808a683.591331 683.591331 0 0 0-25.659442 266.452013c4.111455 49.23839 9.907121 99.071207 15.900928 147.467492l4.804954 40.22291v-2.328173l21.30031-3.616099c31.55418-4.95356 64.396285-10.749226 96.941176-13.572756h33.585139A435.913313 435.913313 0 0 1 520.421053 838.043344a54.489164 54.489164 0 0 0 11.789473 6.687306 61.325077 61.325077 0 0 0 12.037152-7.925696 429.770898 429.770898 0 0 1 265.956656-94.613004 497.931889 497.931889 0 0 1 116.705883 14.860682 151.281734 151.281734 0 0 0 2.823529-23.826626v-8.718266a1451.739938 1451.739938 0 0 0-5.894737-318.266254z m0 0M367.603715 499.71517v-46.662538q-3.863777-174.613003-68.705882-279.529412l-25.659443 27.93808C309.399381 261.944272 328.866873 346.154799 331.93808 452.854489V618.600619a2242.972136 2242.972136 0 0 1 376.470589 32.297214l19.467492-34.427245a2413.424149 2413.424149 0 0 0-359.034056-30.266254v-51.269349h176.693499c2.823529 15.900929 4.95356 32.297214 6.390093 48.198142l38.19195-4.95356c-1.535604-14.860681-3.863777-29.721362-5.894737-43.343654h167.975232v-34.674922h-174.315789a488.767802 488.767802 0 0 0-11.04644-51.26935H703.108359v-179.517028h-37.448916V414.117647H456.569659V266.897833h-36.656346V449.287926h106.650154c4.359133 16.941176 7.925697 33.337461 11.294118 51.26935z m223.900929-218.996904a845.126935 845.126935 0 0 0 160.544892-80l-20.260062-31.554179a772.012384 772.012384 0 0 1-158.216719 83.863777z m-39.232198 112.594427l37.201238-2.823529A234.897833 234.897833 0 0 0 532.210526 247.083591a344.123839 344.123839 0 0 0-150.291021-78.464396L361.312693 203.591331a304.891641 304.891641 0 0 1 138.204335 66.179567 192.346749 192.346749 0 0 1 52.804953 123.343653z m0 0"  horiz-adv-x="1024" />

    
    <glyph glyph-name="propertysafety" unicode="&#58988;" d="M866.9 726.1L527.1 841.9C523 843.3 517.5 844 512 844s-11-0.7-15.1-2.1L157.1 726.1c-8.3-2.8-15.1-12.4-15.1-21.2v-482.4c0-8.8 5.7-20.4 12.6-25.9L499.3-72c3.5-2.7 8-4.1 12.6-4.1s9.2 1.4 12.6 4.1l344.7 268.6c6.9 5.4 12.6 17 12.6 25.9V704.9c0.2 8.8-6.6 18.3-14.9 21.2zM810 241.7L512 9.5 214 241.7V669.3l298 101.6 298-101.6v-427.6zM430.5 578h-46c-1.7 0-3.3-0.4-4.8-1.2-4.8-2.6-6.6-8.7-4-13.6l88-161.1h-45.2c-5.5 0-10-4.5-10-10v-21.3c0-5.5 4.5-10 10-10h63.1v-29.7h-63.1c-5.5 0-10-4.5-10-10v-21.3c0-5.5 4.5-10 10-10h63.1V238c0-5.5 4.5-10 10-10h41.3c5.5 0 10 4.5 10 10v51.8h63.4c5.5 0 10 4.5 10 10v21.3c0 5.5-4.5 10-10 10h-63.4v29.7h63.4c5.5 0 10 4.5 10 10v21.3c0 5.5-4.5 10-10 10h-45.7l87.7 161.1c0.8 1.5 1.2 3.1 1.2 4.8 0 5.5-4.5 10-10 10h-45c-3.8 0-7.2-2.1-8.9-5.5l-73.2-144.3-72.9 144.3c-1.7 3.4-5.2 5.5-9 5.5z"  horiz-adv-x="1024" />

    


  </font>
</defs>
</svg>
